<?xml version="1.0" encoding="UTF-8"?>
<!DOCTYPE svg PUBLIC "-//W3C//DTD SVG 1.1//EN" "http://www.w3.org/Graphics/SVG/1.1/DTD/svg11.dtd">
<!-- Creator: CorelDRAW 2018 (64-Bit) -->
<svg xmlns="http://www.w3.org/2000/svg" xml:space="preserve" width="210mm" height="297mm" version="1.1" style="shape-rendering:geometricPrecision; text-rendering:geometricPrecision; image-rendering:optimizeQuality; fill-rule:evenodd; clip-rule:evenodd"
viewBox="0 0 21000 29700"
 xmlns:xlink="http://www.w3.org/1999/xlink">
 <defs>
  <style type="text/css">
   <![CDATA[
    .fil4 {fill:none}
    .fil0 {fill:#FEFEFE}
    .fil3 {fill:#1F3154}
    .fil1 {fill:#14A6D8}
    .fil2 {fill:#FEAC2D}
   ]]>
  </style>
   <clipPath id="id0">
    <path d="M10510.79 3430.83c5359.55,0 9704.34,4344.79 9704.34,9704.33 0,5359.55 -4344.79,9704.34 -9704.34,9704.34 -5359.54,0 -9704.33,-4344.79 -9704.33,-9704.34 0,-5359.54 4344.79,-9704.33 9704.33,-9704.33z"/>
   </clipPath>
 </defs>
 <g id="Layer_x0020_1">
  <metadata id="CorelCorpID_0Corel-Layer"/>
  <path class="fil0" d="M10510.79 3430.83c5359.55,0 9704.34,4344.79 9704.34,9704.33 0,5359.55 -4344.79,9704.34 -9704.34,9704.34 -5359.54,0 -9704.33,-4344.79 -9704.33,-9704.34 0,-5359.54 4344.79,-9704.33 9704.33,-9704.33z"/>
  <g style="clip-path:url(#id0)">
   <g id="_2707345736272">
    <g>
     <path id="1" class="fil1" d="M7823.5 15770.97c0,-256.32 -6.06,-336.19 29.62,-583.16 15.21,-105.28 34.4,-174.57 58.26,-268.62 11.45,-45.1 24.88,-77.28 39.72,-119.41 64.92,-184.38 137.29,-267.25 242.4,-401.52l57.51 -59.42c159.15,-147.64 352.77,-246.69 572.22,-277.9 273.97,-38.96 542.29,-0.61 774.5,125.4 454.72,246.77 625.49,829.64 625.49,1315.87l-8.55 419.69c-6.94,126.71 -53.93,389.34 -91.01,495.86 -6.79,19.47 -13.72,38.34 -21.79,61.95 -16.1,47.07 -30.69,75.1 -50.21,117.2 -10.28,22.19 -17.61,40.6 -26.13,57.55 -114.92,228.58 -327.61,422.99 -564.95,520.42 -214.25,87.95 -536.02,117.71 -761.11,36.55l-42.18 -16.13c-491.84,-165.37 -726.14,-610.46 -805.24,-1108.86l-28.55 -315.47zm-913.39 -193.18c0,468.42 15.41,663.79 133.69,1074.21 2.16,7.49 4.51,16.45 7.67,25.84l46.76 129.09c55.55,124.8 54.97,142.04 133.19,276.82l48.99 84.83c115,172.59 153.44,218.44 304.35,372.46l220.39 180.22c493.92,334.65 972.74,380.82 1545.49,333.48 241.02,-19.92 610.21,-143.67 806.25,-276.35 103.45,-70 126.12,-82.65 216.41,-159.05 5.83,-4.93 11.7,-9.91 18.33,-15.05 32.2,-25.02 42.26,-34.78 70.32,-63.26 48.2,-48.91 91.06,-88.33 133.71,-141.92l222.86 -320.51c104.56,-189.13 175.51,-369.95 228.44,-583.62 41.07,-165.72 36.85,-198.22 62.22,-348.61 31.59,-187.2 27.43,-418.39 27.43,-610.57 0,-414.37 -115.67,-962.05 -308.84,-1283.4 -18.49,-30.77 -29.11,-56.99 -48.11,-85.72l-122.8 -178.14c-6.15,-8.4 -7.98,-12.04 -13.7,-19.74 -11.97,-16.1 -18.58,-22.89 -29.61,-37.24l-42.34 -49.57c-1.11,-1.32 -2.68,-3.23 -3.79,-4.56l-110.51 -114.99c-9.17,-7.73 -9.64,-7.44 -18.25,-15.13 -197.58,-176.57 -259.67,-210.56 -494.93,-330.89 -60.82,-31.11 -229.19,-89.26 -293.35,-106.42 -325.6,-87.07 -691.95,-99.61 -1022.9,-51.77 -161.46,23.34 -272.14,50.97 -428.45,104.16 -60.55,20.6 -127.29,55.73 -184.84,81.8l-85.28 48.12c-16.96,9.48 -25.03,14.48 -41.71,25.01 -74.32,46.88 -200.85,145.99 -261.07,206.26 -24.14,24.17 -42.06,43.04 -66.28,67.34 -192.73,193.31 -266.51,329.53 -390.53,554.06 -17.15,31.07 -28.55,59.68 -43.36,90.52 -15.01,31.24 -23.59,60.25 -37.89,96.06l-137.91 540.82c-22.04,157.53 -40.05,322.09 -40.05,505.41z"/>
     <path class="fil1" d="M11817.5 13335.3l16.62 3015.17c18.53,375.74 41.49,738.8 242.38,1056.67l166.43 217.99 101.32 90.7c60.87,51.97 93.01,69.15 150.95,107.69l127.51 72.59c186.09,85.01 145.54,79.65 386.93,129.36 297.03,61.17 822.28,65.17 1112.96,1.48 73.11,-16.02 129.34,-25.11 193.14,-48.21 173.08,-62.69 325.22,-141.87 467.37,-257.98l99.48 -92.55c231.93,-246.69 325.89,-536.14 365.67,-915.15 30.28,-288.45 40.11,-621.95 40.11,-942.09l0 -2435.67c0,-19.35 -5.77,-25.19 -24.91,-25.19l-846.96 0c-26.46,0 -24.91,22.78 -25.17,100.47l0.26 2847.52c0.01,130.48 -19.89,434.93 -57,538.66 -23.74,66.36 -60.17,138.58 -100.65,192.16l-41.49 50.42c-222.33,268.63 -778.98,255.99 -1011.71,149.56 -18.18,-8.32 -25.63,-14.12 -50.14,-24.88 -64.82,-28.45 -123.23,-80.66 -175.43,-124.92 -112.54,-95.42 -203.94,-302.71 -222.03,-455.73 -5.63,-47.74 -11.12,-93.75 -10.7,-140.35 0.57,-62 -8.37,-87.4 -8.44,-142.63 -0.28,-197.57 -8.02,-389.85 -8.02,-596.61l0 -2267.7c0.02,-39.23 15.63,-125.97 -24.92,-125.97l-838.65 0c-19.13,0 -24.91,5.84 -24.91,25.19z"/>
     <path class="fil2" d="M14192.31 9597.81l0 1562.19 -979.82 0 69.35 -114.63c0.97,-1.52 2.3,-3.58 3.25,-5.12l292.31 -468.63c21.21,-33.45 40.95,-62.13 61.94,-96.92l477.58 -768.37c24.87,-39.97 47.31,-89.5 75.39,-108.52zm-1776.96 1587.39l0 747.49c0,34.31 42.48,19.83 60.4,18.52 124.35,-9.13 664.87,-1.72 803.17,-1.72l797.52 -0.28c20.84,0.37 38,3.65 52.56,4.75 75.15,5.68 63.31,-65.4 63.31,213.9l0 730.7c35.61,-17.29 587.71,-12.31 706.28,-8.49 137.59,4.44 107.46,69.51 107.46,-302.27 0,-195.94 -2.35,-393.21 -0.95,-588.88 0.54,-75.37 39.42,-49.43 241.75,-49.43 47.06,0 94.12,0.04 141.17,0 24.65,-0.03 50.63,-0.78 75.13,0.31l82.63 -0.31 0 -789.49 -514.81 0c-19.14,0 -24.92,-5.85 -24.92,-25.2l0 -2931.2c-20.12,-0.45 -32.2,-4.71 -42.54,-4.96 -22.17,-0.52 -16.97,4.96 -48.79,4.96l-506.52 0c-37.48,0 -37.41,-7.31 -65.16,-6.23 -1.58,0.06 -23.13,3.04 -27.47,4.35 -27.01,8.16 -32.57,20.83 -55.4,62.12l-334.74 526.5c-0.98,1.49 -2.42,3.47 -3.4,4.97l-9.85 15.22c-6.71,10.85 -8.54,14.86 -15.58,26.25 -12.23,19.77 -19.13,32.52 -31.87,51.75l-484.9 760.95c-37.32,70.46 -65.67,95.51 -88.39,137.38 -9.93,18.29 -4.48,10.24 -15.07,26.75l-687.78 1084.88c-1.02,1.42 -2.56,3.34 -3.61,4.74l-144.82 223.07c-12.65,17.5 -24.81,29.21 -24.81,58.9z"/>
     <path class="fil3" d="M7076.18 12335.84l-49.82 0c-229.29,0 -423.48,-204.66 -423.48,-470.34 0,-260.67 233.22,-352.43 441.8,-409.81 113.48,-31.23 223.61,-55.24 342.03,-82.38 59.35,-13.6 111.45,-28.91 163.75,-44.35 50.2,-14.8 123.39,-31.14 165.09,-51.38 0,127.9 9.45,296.62 -0.43,419.51 -14.38,178.85 -56.06,343.58 -184.67,451.52 -127.85,107.28 -263.79,187.23 -454.27,187.23zm-1228.92 -1931.74c36.43,17.68 727.35,137.46 755.62,151.18 65.19,-137.42 97.15,-304.09 296.3,-389.01 165.11,-70.4 611.69,-57.03 726.63,85.04 103.65,128.13 89.74,292.98 89.74,446.75 -27.1,2.29 -120.69,39.25 -150.52,49.32 -193.52,65.35 -304.56,79.39 -473.12,126.17 -131.08,36.38 -315.95,59.83 -488.06,111.05 -357.18,106.29 -645.86,244.09 -780.61,621.44 -50.04,140.14 -59.01,238.12 -59.01,402.24 0,305.33 124.49,531.11 280.07,682.58 175.04,170.41 434.76,283.29 683.14,283.29 244.17,0 334.5,-1.64 569.45,-95.91 42.69,-17.13 76.41,-34.91 111.97,-54.73 84.64,-47.19 172.95,-108.4 246.12,-170.99 46.44,-39.73 100.26,-105.64 135.31,-115.11 0.74,33.9 10.91,55.99 20.25,88.71l79.39 264.04 830.35 0 -71.57 -187.97c-23.78,-68.73 -47.78,-133.91 -60.21,-207.86 -14.29,-84.98 -27.48,-136.47 -34.92,-233.44 -25.21,-328.58 -15.98,-649.77 -15.98,-983.31 0,-444.86 37.09,-605.3 -24.4,-1067.17 -15.42,-115.8 -40.75,-198.09 -83.47,-285.11 -34.71,-70.68 -101.64,-157.35 -162.52,-205.17 -177.89,-139.75 -271,-188.86 -500.08,-241.67 -181.17,-41.77 -335.01,-33.53 -500.46,-48.24 -91.07,-8.1 -423.39,27.7 -506.11,41.52 -179.15,29.93 -435.82,136.24 -558.35,266.72l-125.93 149.8c-24.77,36.03 -52.71,76.08 -71.32,112.63 -45.15,88.7 -81.04,156.37 -113.24,255l-44.46 148.21z"/>
     <path class="fil1" d="M4178.25 16048.13l0 1940.13 888.48 0 0 -1948.53 1574.56 -2674.57c11.41,-16.68 37.24,-55.05 -5.2,-55.05l-971.5 0c-33.02,0 -115.5,179.75 -135.42,215.78l-376.61 694.11c-12.66,25.24 -17.64,30.26 -30.36,53.28l-346.47 640.63c-20.34,35.58 -42.7,73.55 -63.32,112.32 -14.13,26.55 -55.97,101.99 -60.86,123.22 -32.59,-22.08 -166.15,-281.67 -198.8,-336.43l-127.76 -231.93c-117.24,-220.94 -272.71,-477.18 -390.48,-696.9l-292.22 -527.5c-12.06,-21.07 -18.77,-46.58 -45.28,-46.58l-988.13 0c-29.4,0 -24.17,17.04 -17.62,32.62l1159.89 1961.57c46.06,95.47 427.1,690.76 427.1,743.83z"/>
     <polygon class="fil3" points="11053.57,12890.16 11892.23,12890.16 11892.23,8220.4 11053.57,8220.4 "/>
     <polygon class="fil3" points="9359.65,12890.16 10198.31,12890.16 10198.31,8220.4 9359.65,8220.4 "/>
     <path class="fil1" d="M16990.6 14729.51l398.57 0c41.02,0 24.91,-102.49 24.91,-184.77l0 -638.32c0,-186.69 3.57,-389.58 142.09,-494.58 85.65,-64.92 141.01,-59.74 248.17,-59.74 37.89,0 51.64,9.38 82.2,26.04 122.62,66.86 125.39,196.41 125.39,360.3l0 991.07 423.48 0 0 -1100.25c0,-219.24 -45.43,-427.56 -212.79,-540.67l-154.52 -70.47c-186.59,-43.09 -364.22,-27.89 -522.41,97.55 -12.07,9.57 -20.72,17.05 -32.09,26.34l-63.6 61.66c-22.85,27.13 0.91,20.9 -35.92,30.84l0.15 -764.44c1.53,-114.96 45.11,-83.84 -423.63,-83.84l0 2343.28z"/>
     <path class="fil1" d="M16002.47 12696.99c0,107.31 13.06,243.23 -8.29,335.95l-182.68 0 0 361.15 190.97 0 0 898.68c0,224.9 44.17,387.4 246.88,455.8 96,32.38 69.95,22.94 184.91,22.94 117.41,0 228.1,-28.79 307.23,-67.2 0,-109.3 -24.14,-219.23 -24.91,-277.19 -1.92,-145.12 -23.82,-33.56 -182.68,-33.56 -75.46,0 -107.95,-65.51 -107.95,-142.78l0 -856.69 282.33 0 0 -361.15 -282.33 0 0 -596.32c-36.41,3.07 -77.09,41.82 -106.3,60.46l-317.18 199.91z"/>
    </g>
   </g>
  </g>
  <path class="fil4" d="M10510.79 3430.83c5359.55,0 9704.34,4344.79 9704.34,9704.33 0,5359.55 -4344.79,9704.34 -9704.34,9704.34 -5359.54,0 -9704.33,-4344.79 -9704.33,-9704.34 0,-5359.54 4344.79,-9704.33 9704.33,-9704.33z"/>
 </g>
</svg>
